<svg width="16" height="16" viewBox="0 0 16 16" fill="none" xmlns="http://www.w3.org/2000/svg">
<path d="M9.99968 5.99997V8.66664C9.99968 9.40302 10.5966 9.99997 11.333 9.99997C12.0694 9.99997 12.6663 9.40302 12.6663 8.66664V7.99997C12.6663 7.00141 12.3461 6.02919 11.7526 5.22617C11.1591 4.42314 10.3234 3.83169 9.36882 3.53871C8.4142 3.24573 7.39072 3.26666 6.44889 3.59846C5.50707 3.93026 4.69657 4.55544 4.13639 5.38208C3.57622 6.20872 3.29605 7.19321 3.33692 8.19094C3.37779 9.18867 3.7376 10.147 4.3635 10.9251C4.9894 11.7031 5.84848 12.2599 6.81428 12.5136C7.78009 12.7672 8.80164 12.7044 9.7291 12.3343M9.99968 7.99997C9.99968 9.10454 9.10425 9.99997 7.99968 9.99997C6.89511 9.99997 5.99968 9.10454 5.99968 7.99997C5.99968 6.8954 6.89511 5.99997 7.99968 5.99997C9.10425 5.99997 9.99968 6.8954 9.99968 7.99997Z" stroke="#262626" stroke-linecap="round" stroke-linejoin="round"/>
</svg>
