<?xml version="1.0" standalone="no"?>
<!DOCTYPE svg PUBLIC "-//W3C//DTD SVG 20010904//EN"
 "http://www.w3.org/TR/2001/REC-SVG-20010904/DTD/svg10.dtd">
<svg version="1.0" xmlns="http://www.w3.org/2000/svg"
 width="512.000000pt" height="512.000000pt" viewBox="0 0 512.000000 512.000000"
 preserveAspectRatio="xMidYMid meet">

<g transform="translate(0.000000,512.000000) scale(0.100000,-0.100000)"
fill="#000000" stroke="none">
<path d="M312 4626 c-143 -54 -237 -151 -289 -298 -17 -51 -18 -127 -18 -1768
0 -1641 1 -1717 18 -1768 53 -151 152 -250 302 -302 57 -20 82 -20 2235 -20
2153 0 2178 0 2235 20 147 51 242 144 301 296 18 47 19 107 22 1499 2 909 -1
1474 -7 1513 -21 135 -117 270 -238 335 -107 57 -90 57 -1283 57 l-1095 0
-200 201 c-110 111 -218 214 -239 230 l-39 29 -821 -1 -821 0 -63 -23z m1850
-433 l228 -228 1158 -5 c1146 -5 1157 -5 1202 -26 25 -11 59 -37 77 -57 66
-76 63 6 63 -1547 0 -1123 -3 -1416 -13 -1456 -18 -68 -58 -118 -120 -149
l-51 -25 -2146 0 -2146 0 -51 25 c-62 31 -102 81 -120 149 -19 74 -19 3298 0
3372 18 68 58 118 120 149 l51 25 760 0 761 0 227 -227z"/>
<path d="M3161 3479 c-110 -22 -232 -107 -296 -208 -48 -77 -67 -146 -67 -252
l-1 -96 -291 -145 -292 -146 -44 40 c-185 163 -461 155 -635 -19 -269 -269
-116 -725 263 -784 130 -20 271 23 367 112 l47 43 295 -148 296 -147 -7 -45
c-3 -25 -1 -77 4 -117 26 -181 156 -331 331 -383 74 -22 200 -20 271 5 329
114 426 523 183 766 -90 90 -198 135 -326 135 -121 0 -223 -38 -311 -118 l-40
-36 -292 146 -292 146 0 100 0 99 294 147 294 147 49 -46 c238 -223 648 -99
743 224 22 75 20 185 -4 262 -70 228 -302 365 -539 318z m161 -233 c159 -47
219 -235 118 -363 -133 -169 -410 -75 -410 139 0 115 67 202 175 229 46 11 68
10 117 -5z m-1367 -710 c97 -44 141 -122 133 -231 -10 -116 -90 -196 -206
-203 -82 -6 -138 16 -190 72 -106 114 -71 290 70 360 66 33 126 34 193 2z
m1395 -697 c60 -27 88 -54 116 -114 40 -85 28 -174 -35 -246 -45 -53 -101 -79
-171 -79 -130 0 -229 99 -230 228 0 168 168 280 320 211z"/>
</g>
</svg>
