<svg width="24" height="24" viewBox="0 0 24 24" fill="none" xmlns="http://www.w3.org/2000/svg">
<path d="M16.6667 12.6668C17.0349 12.6668 17.3333 12.3684 17.3333 12.0002C17.3333 11.632 17.0349 11.3335 16.6667 11.3335C16.2985 11.3335 16 11.632 16 12.0002C16 12.3684 16.2985 12.6668 16.6667 12.6668Z" stroke="#949494" stroke-linecap="round" stroke-linejoin="round"/>
<path d="M12.0002 12.6668C12.3684 12.6668 12.6668 12.3684 12.6668 12.0002C12.6668 11.632 12.3684 11.3335 12.0002 11.3335C11.632 11.3335 11.3335 11.632 11.3335 12.0002C11.3335 12.3684 11.632 12.6668 12.0002 12.6668Z" stroke="#949494" stroke-linecap="round" stroke-linejoin="round"/>
<path d="M7.33317 12.6668C7.70136 12.6668 7.99984 12.3684 7.99984 12.0002C7.99984 11.632 7.70136 11.3335 7.33317 11.3335C6.96498 11.3335 6.6665 11.632 6.6665 12.0002C6.6665 12.3684 6.96498 12.6668 7.33317 12.6668Z" stroke="#949494" stroke-linecap="round" stroke-linejoin="round"/>
</svg>
