<svg width="16" height="14" viewBox="0 0 16 14" fill="none" xmlns="http://www.w3.org/2000/svg">
<path d="M5.88251 11.392L6.01184 10.9091C5.89377 10.8774 5.76822 10.8902 5.6589 10.9448L5.88251 11.392ZM2.66659 13L2.17161 12.9293C2.14531 13.1134 2.22336 13.2969 2.37423 13.4056C2.5251 13.5144 2.72385 13.5304 2.89019 13.4472L2.66659 13ZM3.10207 9.9516L3.59705 10.0223C3.6211 9.85396 3.55793 9.68493 3.42937 9.57361L3.10207 9.9516ZM7.99992 12.1667C11.8481 12.1667 15.1666 9.65334 15.1666 6.33333H14.1666C14.1666 8.90436 11.5156 11.1667 7.99992 11.1667V12.1667ZM5.75318 11.875C6.46086 12.0645 7.21634 12.1667 7.99992 12.1667V11.1667C7.30315 11.1667 6.63464 11.0758 6.01184 10.9091L5.75318 11.875ZM2.89019 13.4472L6.10611 11.8393L5.6589 10.9448L2.44298 12.5528L2.89019 13.4472ZM2.6071 9.88089L2.17161 12.9293L3.16156 13.0707L3.59705 10.0223L2.6071 9.88089ZM0.833252 6.33333C0.833252 7.89902 1.58682 9.30093 2.77477 10.3296L3.42937 9.57361C2.4214 8.7008 1.83325 7.56053 1.83325 6.33333H0.833252ZM7.99992 0.5C4.15176 0.5 0.833252 3.01332 0.833252 6.33333H1.83325C1.83325 3.76231 4.48428 1.5 7.99992 1.5V0.5ZM15.1666 6.33333C15.1666 3.01332 11.8481 0.5 7.99992 0.5V1.5C11.5156 1.5 14.1666 3.76231 14.1666 6.33333H15.1666Z" fill="#949494"/>
</svg>
