<svg width="24" height="24" viewBox="0 0 24 24" fill="none" xmlns="http://www.w3.org/2000/svg">
<path fill-rule="evenodd" clip-rule="evenodd" d="M12.0001 3.875C7.18988 3.875 3.04175 7.01665 3.04175 11.1667C3.04175 13.0085 3.87605 14.6691 5.21206 15.93L4.7147 19.4116C4.68182 19.6417 4.77939 19.8711 4.96797 20.007C5.15656 20.143 5.405 20.163 5.61292 20.059L9.42446 18.1532C10.2412 18.3519 11.106 18.4583 12.0001 18.4583C16.8103 18.4583 20.9584 15.3167 20.9584 11.1667C20.9584 7.01665 16.8103 3.875 12.0001 3.875ZM15.2743 12.5333H13.6099C13.5876 12.8599 13.5153 13.1326 13.3928 13.3516C13.274 13.5705 13.1015 13.7357 12.8751 13.847C12.6487 13.9584 12.3611 14.014 12.0123 14.014C11.7154 14.014 11.4611 13.9602 11.2496 13.8526C11.0418 13.7413 10.8711 13.578 10.7375 13.3627C10.6076 13.1438 10.5111 12.8766 10.448 12.5611C10.3849 12.242 10.3534 11.8727 10.3534 11.4534V10.88C10.3534 10.4495 10.3868 10.0747 10.4536 9.75551C10.5241 9.43264 10.6299 9.16544 10.7709 8.95391C10.9119 8.74237 11.0863 8.58465 11.2941 8.48074C11.502 8.37683 11.7451 8.32487 12.0234 8.32487C12.3945 8.32487 12.6914 8.38425 12.9141 8.50301C13.1404 8.61805 13.3093 8.79062 13.4206 9.02071C13.532 9.24709 13.5969 9.52357 13.6155 9.85014H15.2855C15.2335 9.3009 15.0776 8.81103 14.8179 8.38054C14.5618 7.95005 14.2 7.61234 13.7324 7.3674C13.2685 7.12247 12.6988 7 12.0234 7C11.515 7 11.0548 7.09092 10.6428 7.27277C10.2309 7.45461 9.8765 7.71439 9.57961 8.0521C9.28643 8.38982 9.06005 8.7999 8.90047 9.28234C8.74461 9.76108 8.66667 10.2973 8.66667 10.8911V11.4534C8.66667 12.0471 8.74275 12.5834 8.89491 13.0621C9.04706 13.5409 9.26787 13.9491 9.55734 14.2868C9.85052 14.6245 10.2031 14.8843 10.615 15.0661C11.0269 15.2443 11.4927 15.3333 12.0123 15.3333C12.6765 15.3333 13.2443 15.2146 13.7157 14.9771C14.1907 14.7396 14.5599 14.4093 14.8234 13.9862C15.0906 13.5631 15.2409 13.0788 15.2743 12.5333Z" fill="#949494"/>
</svg>
