<svg width="16" height="16" viewBox="0 0 16 16" fill="none" xmlns="http://www.w3.org/2000/svg">
<path fill-rule="evenodd" clip-rule="evenodd" d="M7.99999 0.833496C8.27614 0.833496 8.49999 1.05735 8.49999 1.3335V2.18796C11.3228 2.42758 13.5726 4.67737 13.8122 7.50016H14.6667C14.9428 7.50016 15.1667 7.72402 15.1667 8.00016C15.1667 8.2763 14.9428 8.50016 14.6667 8.50016H13.8122C13.5726 11.323 11.3228 13.5727 8.49999 13.8124V14.6668C8.49999 14.943 8.27614 15.1668 7.99999 15.1668C7.72385 15.1668 7.49999 14.943 7.49999 14.6668V13.8124C4.6772 13.5727 2.42742 11.323 2.18779 8.50016H1.33333C1.05719 8.50016 0.833328 8.2763 0.833328 8.00016C0.833328 7.72402 1.05719 7.50016 1.33333 7.50016H2.18779C2.42742 4.67737 4.6772 2.42758 7.49999 2.18796V1.3335C7.49999 1.05735 7.72385 0.833496 7.99999 0.833496ZM3.16666 8.00016C3.16666 10.6695 5.33062 12.8335 7.99999 12.8335C10.6694 12.8335 12.8333 10.6695 12.8333 8.00016C12.8333 5.33079 10.6694 3.16683 7.99999 3.16683C5.33062 3.16683 3.16666 5.33079 3.16666 8.00016Z" fill="#DFDFDF"/>
</svg>
