<svg class="svg-icon" style="width: 1em;height: 1em;vertical-align: middle;fill: currentColor;overflow: hidden;" viewBox="0 0 1024 1024" version="1.1" xmlns="http://www.w3.org/2000/svg"><path d="M885 950.5H419.4c-42.2 0-76.5-34.3-76.5-76.5V381.7c0-27.5 22.4-49.9 49.9-49.9H885c42.2 0 76.5 34.3 76.5 76.5v465.6c0.1 42.2-34.3 76.6-76.5 76.6zM392.8 378.4c-1.8 0-3.3 1.5-3.3 3.3v492.2c0 16.5 13.4 30 30 30H885c16.5 0 30-13.4 30-30V408.3c0-16.5-13.4-30-30-30H392.8z" fill="#7D7D7D" /><path d="M605.2 693.2H139.5c-42.2 0-76.5-34.3-76.5-76.5V124.4c0-27.5 22.4-49.9 49.9-49.9h492.2c42.2 0 76.5 34.3 76.5 76.5v465.6c0.1 42.3-34.2 76.6-76.4 76.6zM112.9 121.1c-1.8 0-3.3 1.5-3.3 3.3v492.2c0 16.5 13.4 30 30 30h465.6c16.5 0 30-13.4 30-30V151.1c0-16.5-13.4-30-30-30H112.9z" fill="#7D7D7D" /></svg>